<svg width="200" height="31" viewBox="0 0 200 31" fill="none" xmlns="http://www.w3.org/2000/svg">
<rect width="200" height="31" rx="15.5" fill="#FF971D" fill-opacity="0.1"/>
<rect x="0.5" y="0.5" width="199" height="30" rx="15" stroke="white" stroke-opacity="0.1"/>
<path d="M17.168 21V9.8H24.128V11.112H18.768V14.744H23.248V16.024H18.768V21H17.168ZM28.1199 21.192C27.4905 21.192 26.9412 21.064 26.4719 20.808C26.0132 20.552 25.6559 20.168 25.3999 19.656C25.1545 19.144 25.0319 18.4987 25.0319 17.72V12.936H26.6319V17.544C26.6319 18.3013 26.7972 18.872 27.1279 19.256C27.4585 19.64 27.9332 19.832 28.5519 19.832C28.9679 19.832 29.3412 19.7307 29.6719 19.528C30.0132 19.3253 30.2799 19.032 30.4719 18.648C30.6639 18.264 30.7599 17.7947 30.7599 17.24V12.936H32.3599V21H30.9359L30.8239 19.624C30.5785 20.1147 30.2212 20.4987 29.7519 20.776C29.2825 21.0533 28.7385 21.192 28.1199 21.192ZM37.2785 21C36.7665 21 36.3238 20.92 35.9505 20.76C35.5772 20.6 35.2892 20.3333 35.0865 19.96C34.8838 19.5867 34.7825 19.08 34.7825 18.44V14.296H33.3905V12.936H34.7825L34.9745 10.92H36.3825V12.936H38.6705V14.296H36.3825V18.456C36.3825 18.9147 36.4785 19.2293 36.6705 19.4C36.8625 19.56 37.1932 19.64 37.6625 19.64H38.5905V21H37.2785ZM42.7949 21.192C42.1655 21.192 41.6162 21.064 41.1469 20.808C40.6882 20.552 40.3309 20.168 40.0749 19.656C39.8295 19.144 39.7069 18.4987 39.7069 17.72V12.936H41.3069V17.544C41.3069 18.3013 41.4722 18.872 41.8029 19.256C42.1335 19.64 42.6082 19.832 43.2269 19.832C43.6429 19.832 44.0162 19.7307 44.3469 19.528C44.6882 19.3253 44.9549 19.032 45.1469 18.648C45.3389 18.264 45.4349 17.7947 45.4349 17.24V12.936H47.0349V21H45.6109L45.4989 19.624C45.2535 20.1147 44.8962 20.4987 44.4269 20.776C43.9575 21.0533 43.4135 21.192 42.7949 21.192ZM48.6255 21V12.936H50.0655L50.2095 14.456C50.3908 14.0933 50.6255 13.7893 50.9135 13.544C51.2015 13.288 51.5375 13.0907 51.9215 12.952C52.3162 12.8133 52.7642 12.744 53.2655 12.744V14.44H52.6895C52.3588 14.44 52.0442 14.4827 51.7455 14.568C51.4468 14.6427 51.1802 14.776 50.9455 14.968C50.7215 15.16 50.5455 15.4213 50.4175 15.752C50.2895 16.0827 50.2255 16.4933 50.2255 16.984V21H48.6255ZM57.5485 21.192C56.7805 21.192 56.0978 21.016 55.5005 20.664C54.9032 20.312 54.4338 19.8213 54.0925 19.192C53.7618 18.5627 53.5965 17.832 53.5965 17C53.5965 16.1467 53.7618 15.4053 54.0925 14.776C54.4338 14.136 54.9032 13.64 55.5005 13.288C56.0978 12.9253 56.7912 12.744 57.5805 12.744C58.3698 12.744 59.0472 12.92 59.6125 13.272C60.1778 13.624 60.6152 14.0933 60.9245 14.68C61.2338 15.256 61.3885 15.896 61.3885 16.6C61.3885 16.7067 61.3832 16.824 61.3725 16.952C61.3725 17.0693 61.3672 17.2027 61.3565 17.352H54.7645V16.216H59.7885C59.7565 15.544 59.5325 15.0213 59.1165 14.648C58.7005 14.264 58.1832 14.072 57.5645 14.072C57.1272 14.072 56.7272 14.1733 56.3645 14.376C56.0018 14.568 55.7085 14.856 55.4845 15.24C55.2712 15.6133 55.1645 16.088 55.1645 16.664V17.112C55.1645 17.7093 55.2712 18.216 55.4845 18.632C55.7085 19.0373 56.0018 19.3467 56.3645 19.56C56.7272 19.7627 57.1218 19.864 57.5485 19.864C58.0605 19.864 58.4818 19.752 58.8125 19.528C59.1432 19.304 59.3885 19 59.5485 18.616H61.1485C61.0098 19.1067 60.7752 19.5493 60.4445 19.944C60.1138 20.328 59.7032 20.632 59.2125 20.856C58.7325 21.08 58.1778 21.192 57.5485 21.192ZM69.7399 21.192C68.9825 21.192 68.2999 21.016 67.6919 20.664C67.0945 20.312 66.6199 19.8213 66.2679 19.192C65.9265 18.552 65.7559 17.816 65.7559 16.984C65.7559 16.1307 65.9319 15.3893 66.2839 14.76C66.6359 14.12 67.1159 13.624 67.7239 13.272C68.3319 12.92 69.0145 12.744 69.7719 12.744C70.5399 12.744 71.2225 12.92 71.8199 13.272C72.4172 13.624 72.8865 14.1147 73.2279 14.744C73.5799 15.3733 73.7559 16.1147 73.7559 16.968C73.7559 17.8213 73.5799 18.5627 73.2279 19.192C72.8865 19.8213 72.4119 20.312 71.8039 20.664C71.1959 21.016 70.5079 21.192 69.7399 21.192ZM69.7399 19.816C70.1772 19.816 70.5719 19.7093 70.9239 19.496C71.2865 19.2827 71.5745 18.968 71.7879 18.552C72.0119 18.1253 72.1239 17.5973 72.1239 16.968C72.1239 16.3387 72.0172 15.816 71.8039 15.4C71.5905 14.9733 71.3025 14.6533 70.9399 14.44C70.5879 14.2267 70.1985 14.12 69.7719 14.12C69.3452 14.12 68.9505 14.2267 68.5879 14.44C68.2252 14.6533 67.9319 14.9733 67.7079 15.4C67.4945 15.816 67.3879 16.3387 67.3879 16.968C67.3879 17.5973 67.4945 18.1253 67.7079 18.552C67.9319 18.968 68.2199 19.2827 68.5719 19.496C68.9345 19.7093 69.3239 19.816 69.7399 19.816ZM75.47 21V11.848C75.47 11.2933 75.5607 10.84 75.742 10.488C75.934 10.136 76.2113 9.88 76.574 9.72C76.9367 9.56 77.374 9.48 77.886 9.48H78.83V10.84H78.142C77.758 10.84 77.4807 10.92 77.31 11.08C77.15 11.2293 77.07 11.496 77.07 11.88V21H75.47ZM74.286 14.296V12.936H79.006V14.296H74.286ZM87.2535 21.192C86.4748 21.192 85.7815 21.016 85.1735 20.664C84.5655 20.3013 84.0855 19.8053 83.7335 19.176C83.3922 18.5467 83.2215 17.816 83.2215 16.984C83.2215 16.1413 83.3922 15.4053 83.7335 14.776C84.0855 14.136 84.5655 13.64 85.1735 13.288C85.7815 12.9253 86.4748 12.744 87.2535 12.744C88.2348 12.744 89.0562 13 89.7175 13.512C90.3788 14.024 90.8002 14.7173 90.9815 15.592H89.3175C89.2108 15.1227 88.9655 14.76 88.5815 14.504C88.2082 14.248 87.7602 14.12 87.2375 14.12C86.8108 14.12 86.4162 14.232 86.0535 14.456C85.6908 14.6693 85.3975 14.9893 85.1735 15.416C84.9602 15.832 84.8535 16.3493 84.8535 16.968C84.8535 17.4267 84.9175 17.8373 85.0455 18.2C85.1735 18.552 85.3442 18.8507 85.5575 19.096C85.7815 19.3413 86.0375 19.528 86.3255 19.656C86.6135 19.7733 86.9175 19.832 87.2375 19.832C87.5895 19.832 87.9042 19.7787 88.1815 19.672C88.4695 19.5547 88.7095 19.384 88.9015 19.16C89.1042 18.936 89.2428 18.6693 89.3175 18.36H90.9815C90.8002 19.2133 90.3788 19.9013 89.7175 20.424C89.0562 20.936 88.2348 21.192 87.2535 21.192ZM92.2536 21V12.936H93.6936L93.8376 14.456C94.019 14.0933 94.2536 13.7893 94.5416 13.544C94.8296 13.288 95.1656 13.0907 95.5496 12.952C95.9443 12.8133 96.3923 12.744 96.8936 12.744V14.44H96.3176C95.987 14.44 95.6723 14.4827 95.3736 14.568C95.075 14.6427 94.8083 14.776 94.5736 14.968C94.3496 15.16 94.1736 15.4213 94.0456 15.752C93.9176 16.0827 93.8536 16.4933 93.8536 16.984V21H92.2536ZM98.691 24.52L100.659 20.104H100.195L97.011 12.936H98.739L101.267 18.792L103.811 12.936H105.491L100.371 24.52H98.691ZM106.304 24.52V12.936H107.744L107.904 14.184C108.074 13.9387 108.288 13.7093 108.544 13.496C108.8 13.272 109.104 13.0907 109.456 12.952C109.818 12.8133 110.24 12.744 110.72 12.744C111.488 12.744 112.16 12.9307 112.736 13.304C113.322 13.6773 113.776 14.184 114.096 14.824C114.426 15.4533 114.592 16.1733 114.592 16.984C114.592 17.7947 114.426 18.52 114.096 19.16C113.765 19.7893 113.306 20.2853 112.72 20.648C112.144 21.0107 111.472 21.192 110.704 21.192C110.074 21.192 109.52 21.0693 109.04 20.824C108.56 20.568 108.181 20.216 107.904 19.768V24.52H106.304ZM110.448 19.8C110.938 19.8 111.37 19.6827 111.744 19.448C112.128 19.2133 112.426 18.8827 112.64 18.456C112.864 18.0293 112.976 17.5333 112.976 16.968C112.976 16.4027 112.864 15.912 112.64 15.496C112.426 15.0693 112.128 14.7387 111.744 14.504C111.37 14.2587 110.938 14.136 110.448 14.136C109.946 14.136 109.504 14.2587 109.12 14.504C108.746 14.7387 108.453 15.0693 108.24 15.496C108.026 15.912 107.92 16.4027 107.92 16.968C107.92 17.5333 108.026 18.0293 108.24 18.456C108.453 18.8827 108.746 19.2133 109.12 19.448C109.504 19.6827 109.946 19.8 110.448 19.8ZM118.875 21C118.363 21 117.921 20.92 117.547 20.76C117.174 20.6 116.886 20.3333 116.683 19.96C116.481 19.5867 116.379 19.08 116.379 18.44V14.296H114.987V12.936H116.379L116.571 10.92H117.979V12.936H120.267V14.296H117.979V18.456C117.979 18.9147 118.075 19.2293 118.267 19.4C118.459 19.56 118.79 19.64 119.259 19.64H120.187V21H118.875ZM124.893 21.192C124.136 21.192 123.453 21.016 122.845 20.664C122.248 20.312 121.773 19.8213 121.421 19.192C121.08 18.552 120.909 17.816 120.909 16.984C120.909 16.1307 121.085 15.3893 121.437 14.76C121.789 14.12 122.269 13.624 122.877 13.272C123.485 12.92 124.168 12.744 124.925 12.744C125.693 12.744 126.376 12.92 126.973 13.272C127.57 13.624 128.04 14.1147 128.381 14.744C128.733 15.3733 128.909 16.1147 128.909 16.968C128.909 17.8213 128.733 18.5627 128.381 19.192C128.04 19.8213 127.565 20.312 126.957 20.664C126.349 21.016 125.661 21.192 124.893 21.192ZM124.893 19.816C125.33 19.816 125.725 19.7093 126.077 19.496C126.44 19.2827 126.728 18.968 126.941 18.552C127.165 18.1253 127.277 17.5973 127.277 16.968C127.277 16.3387 127.17 15.816 126.957 15.4C126.744 14.9733 126.456 14.6533 126.093 14.44C125.741 14.2267 125.352 14.12 124.925 14.12C124.498 14.12 124.104 14.2267 123.741 14.44C123.378 14.6533 123.085 14.9733 122.861 15.4C122.648 15.816 122.541 16.3387 122.541 16.968C122.541 17.5973 122.648 18.1253 122.861 18.552C123.085 18.968 123.373 19.2827 123.725 19.496C124.088 19.7093 124.477 19.816 124.893 19.816ZM137.013 21C136.501 21 136.058 20.92 135.685 20.76C135.312 20.6 135.024 20.3333 134.821 19.96C134.618 19.5867 134.517 19.08 134.517 18.44V14.296H133.125V12.936H134.517L134.709 10.92H136.117V12.936H138.405V14.296H136.117V18.456C136.117 18.9147 136.213 19.2293 136.405 19.4C136.597 19.56 136.928 19.64 137.397 19.64H138.325V21H137.013ZM139.569 21V12.936H141.009L141.153 14.456C141.335 14.0933 141.569 13.7893 141.857 13.544C142.145 13.288 142.481 13.0907 142.865 12.952C143.26 12.8133 143.708 12.744 144.209 12.744V14.44H143.633C143.303 14.44 142.988 14.4827 142.689 14.568C142.391 14.6427 142.124 14.776 141.889 14.968C141.665 15.16 141.489 15.4213 141.361 15.752C141.233 16.0827 141.169 16.4933 141.169 16.984V21H139.569ZM147.751 21.192C147.089 21.192 146.54 21.08 146.103 20.856C145.665 20.632 145.34 20.3333 145.127 19.96C144.913 19.576 144.807 19.1653 144.807 18.728C144.807 18.1947 144.945 17.7413 145.223 17.368C145.5 16.984 145.895 16.6907 146.407 16.488C146.919 16.2853 147.532 16.184 148.247 16.184H150.343C150.343 15.7147 150.273 15.3253 150.135 15.016C149.996 14.7067 149.788 14.4773 149.511 14.328C149.244 14.168 148.903 14.088 148.487 14.088C148.007 14.088 147.596 14.2053 147.255 14.44C146.913 14.664 146.7 15 146.615 15.448H145.015C145.079 14.8827 145.271 14.4027 145.591 14.008C145.921 13.6027 146.343 13.2933 146.855 13.08C147.367 12.856 147.911 12.744 148.487 12.744C149.244 12.744 149.879 12.8773 150.391 13.144C150.903 13.4107 151.287 13.7893 151.543 14.28C151.809 14.76 151.943 15.336 151.943 16.008V21H150.551L150.423 19.64C150.305 19.8533 150.167 20.056 150.007 20.248C149.847 20.44 149.655 20.6053 149.431 20.744C149.217 20.8827 148.967 20.9893 148.679 21.064C148.401 21.1493 148.092 21.192 147.751 21.192ZM148.055 19.896C148.396 19.896 148.705 19.8267 148.983 19.688C149.26 19.5493 149.495 19.3627 149.687 19.128C149.889 18.8827 150.039 18.6107 150.135 18.312C150.241 18.0027 150.3 17.688 150.311 17.368V17.32H148.407C147.948 17.32 147.575 17.3787 147.287 17.496C147.009 17.6027 146.807 17.752 146.679 17.944C146.551 18.136 146.487 18.36 146.487 18.616C146.487 18.8827 146.545 19.112 146.663 19.304C146.791 19.4853 146.972 19.6293 147.207 19.736C147.441 19.8427 147.724 19.896 148.055 19.896ZM156.969 21.192C156.201 21.192 155.524 21.0107 154.937 20.648C154.35 20.2747 153.892 19.7733 153.561 19.144C153.241 18.504 153.081 17.7787 153.081 16.968C153.081 16.1467 153.241 15.4213 153.561 14.792C153.892 14.1627 154.35 13.6667 154.937 13.304C155.534 12.9307 156.217 12.744 156.985 12.744C157.614 12.744 158.169 12.872 158.649 13.128C159.129 13.3733 159.502 13.7253 159.769 14.184V9.48H161.369V21H159.929L159.769 19.752C159.609 19.9973 159.401 20.232 159.145 20.456C158.889 20.6693 158.58 20.8453 158.217 20.984C157.854 21.1227 157.438 21.192 156.969 21.192ZM157.225 19.8C157.726 19.8 158.169 19.6827 158.553 19.448C158.937 19.2133 159.23 18.8827 159.433 18.456C159.646 18.0293 159.753 17.5333 159.753 16.968C159.753 16.4027 159.646 15.912 159.433 15.496C159.23 15.0693 158.937 14.7387 158.553 14.504C158.169 14.2587 157.726 14.136 157.225 14.136C156.745 14.136 156.313 14.2587 155.929 14.504C155.545 14.7387 155.246 15.0693 155.033 15.496C154.82 15.912 154.713 16.4027 154.713 16.968C154.713 17.5333 154.82 18.0293 155.033 18.456C155.246 18.8827 155.545 19.2133 155.929 19.448C156.313 19.6827 156.745 19.8 157.225 19.8ZM163.069 21V12.936H164.669V21H163.069ZM163.885 11.416C163.575 11.416 163.319 11.32 163.117 11.128C162.925 10.936 162.829 10.6907 162.829 10.392C162.829 10.104 162.925 9.86933 163.117 9.688C163.319 9.496 163.575 9.4 163.885 9.4C164.183 9.4 164.434 9.496 164.637 9.688C164.839 9.86933 164.941 10.104 164.941 10.392C164.941 10.6907 164.839 10.936 164.637 11.128C164.434 11.32 164.183 11.416 163.885 11.416ZM166.357 21V12.936H167.797L167.893 14.312C168.149 13.832 168.511 13.4533 168.981 13.176C169.45 12.888 169.989 12.744 170.597 12.744C171.237 12.744 171.786 12.872 172.245 13.128C172.703 13.384 173.061 13.7733 173.317 14.296C173.573 14.808 173.701 15.4533 173.701 16.232V21H172.101V16.392C172.101 15.6453 171.935 15.08 171.605 14.696C171.274 14.312 170.794 14.12 170.165 14.12C169.749 14.12 169.375 14.2213 169.045 14.424C168.714 14.616 168.447 14.904 168.245 15.288C168.053 15.672 167.957 16.1413 167.957 16.696V21H166.357ZM178.427 24.712C177.691 24.712 177.041 24.616 176.475 24.424C175.91 24.2427 175.473 23.96 175.163 23.576C174.854 23.192 174.699 22.7227 174.699 22.168C174.699 21.88 174.763 21.5867 174.891 21.288C175.019 21 175.227 20.7227 175.515 20.456C175.803 20.1893 176.193 19.9493 176.683 19.736L177.579 20.456C177.035 20.6587 176.667 20.8987 176.475 21.176C176.294 21.464 176.203 21.7413 176.203 22.008C176.203 22.328 176.299 22.5947 176.491 22.808C176.683 23.0213 176.945 23.1813 177.275 23.288C177.617 23.3947 178.001 23.448 178.427 23.448C178.843 23.448 179.206 23.3893 179.515 23.272C179.825 23.1547 180.065 22.9893 180.235 22.776C180.406 22.5627 180.491 22.312 180.491 22.024C180.491 21.6827 180.363 21.3947 180.107 21.16C179.851 20.936 179.361 20.8027 178.635 20.76C178.027 20.7173 177.51 20.6587 177.083 20.584C176.667 20.5093 176.31 20.4187 176.011 20.312C175.723 20.2053 175.478 20.088 175.275 19.96C175.083 19.832 174.918 19.6987 174.779 19.56V19.192L176.379 17.544L177.675 17.992L175.931 19.608L176.267 18.888C176.385 18.9627 176.497 19.0373 176.603 19.112C176.71 19.176 176.854 19.2347 177.035 19.288C177.217 19.3413 177.462 19.3893 177.771 19.432C178.081 19.4747 178.486 19.5173 178.987 19.56C179.713 19.6133 180.294 19.7413 180.731 19.944C181.179 20.1467 181.505 20.4187 181.707 20.76C181.91 21.1013 182.011 21.5067 182.011 21.976C182.011 22.4347 181.883 22.872 181.627 23.288C181.382 23.704 180.993 24.0453 180.459 24.312C179.937 24.5787 179.259 24.712 178.427 24.712ZM178.427 18.52C177.745 18.52 177.163 18.392 176.683 18.136C176.214 17.88 175.851 17.5333 175.595 17.096C175.35 16.6587 175.227 16.1733 175.227 15.64C175.227 15.096 175.35 14.6107 175.595 14.184C175.851 13.7467 176.219 13.4 176.699 13.144C177.179 12.8773 177.755 12.744 178.427 12.744C179.099 12.744 179.67 12.8773 180.139 13.144C180.619 13.4 180.982 13.7467 181.227 14.184C181.483 14.6107 181.611 15.096 181.611 15.64C181.611 16.1733 181.483 16.6587 181.227 17.096C180.982 17.5333 180.619 17.88 180.139 18.136C179.67 18.392 179.099 18.52 178.427 18.52ZM178.427 17.24C178.95 17.24 179.366 17.1067 179.675 16.84C179.985 16.5627 180.139 16.1627 180.139 15.64C180.139 15.1173 179.985 14.7227 179.675 14.456C179.366 14.1787 178.95 14.04 178.427 14.04C177.905 14.04 177.483 14.1787 177.163 14.456C176.843 14.7227 176.683 15.1173 176.683 15.64C176.683 16.1627 176.843 16.5627 177.163 16.84C177.483 17.1067 177.905 17.24 178.427 17.24ZM179.739 14.2L179.355 12.936H182.667V14.04L179.739 14.2Z" fill="#FF971D"/>
</svg>
