<svg width="473" height="86" viewBox="0 0 473 86" fill="none" xmlns="http://www.w3.org/2000/svg">
<path d="M17.0728 20.8686C20.7751 16.2954 25.469 12.5458 30.8308 9.87854C36.1925 7.21125 42.0945 5.68971 48.1297 5.41885C54.1648 5.148 60.1895 6.13428 65.7881 8.30967C71.3868 10.4851 76.4261 13.7978 80.5587 18.0194L66.7662 30.4066C64.5041 28.0957 61.7455 26.2823 58.6808 25.0915C55.6161 23.9007 52.3182 23.3608 49.0146 23.5091C45.7109 23.6574 42.4802 24.4902 39.5452 25.9503C36.6102 27.4104 34.0407 29.4629 32.014 31.9663L17.0728 20.8686Z" fill="white"/>
<path d="M80.6251 66.2767C76.7499 70.7165 71.9153 74.2983 66.4548 76.7751C60.9944 79.2519 55.038 80.5647 48.9965 80.623C42.9551 80.6812 36.9723 79.4836 31.4609 77.1126C25.9495 74.7417 21.0406 71.2538 17.0728 66.8897L31.3311 54.9962C33.5031 57.3851 36.1902 59.2944 39.2072 60.5922C42.2241 61.8901 45.4991 62.5457 48.8062 62.5138C52.1132 62.4819 55.3738 61.7633 58.3628 60.4075C61.3519 59.0517 63.9983 57.091 66.1196 54.6607L80.6251 66.2767Z" fill="white"/>
<path d="M39.728 43.7646L16.8262 61.7837L16.8262 25.7454L39.728 43.7646Z" fill="#FF971D"/>
<path d="M28.2764 43.7646L5.37452 61.7837L5.37452 25.7454L28.2764 43.7646Z" fill="#FF971D"/>
<path d="M99.36 68L116.208 17.6H127.584L144.216 68H136.584L122.04 22.424H121.752L106.92 68H99.36ZM107.712 52.664L109.728 46.904H133.416L135.432 52.664H107.712ZM147.203 82.4V32.288H153.251L153.755 38.984H154.043C155.099 37.304 156.299 35.912 157.643 34.808C159.035 33.704 160.595 32.864 162.323 32.288C164.051 31.712 165.899 31.424 167.867 31.424C171.275 31.424 174.227 32.24 176.723 33.872C179.267 35.504 181.211 37.736 182.555 40.568C183.947 43.4 184.643 46.592 184.643 50.144C184.643 53.696 183.947 56.888 182.555 59.72C181.211 62.552 179.243 64.784 176.651 66.416C174.059 68.048 170.915 68.864 167.219 68.864C164.051 68.864 161.411 68.216 159.299 66.92C157.187 65.624 155.555 64.16 154.403 62.528V82.4H147.203ZM165.923 62.744C168.275 62.744 170.291 62.216 171.971 61.16C173.699 60.104 175.019 58.64 175.931 56.768C176.891 54.896 177.371 52.688 177.371 50.144C177.371 47.648 176.891 45.464 175.931 43.592C175.019 41.672 173.699 40.184 171.971 39.128C170.291 38.072 168.275 37.544 165.923 37.544C163.619 37.544 161.603 38.072 159.875 39.128C158.147 40.184 156.803 41.672 155.843 43.592C154.931 45.464 154.475 47.648 154.475 50.144C154.475 52.688 154.931 54.896 155.843 56.768C156.803 58.64 158.147 60.104 159.875 61.16C161.603 62.216 163.619 62.744 165.923 62.744ZM205.559 68.864C202.055 68.864 198.959 68.096 196.271 66.56C193.583 64.976 191.471 62.792 189.935 60.008C188.399 57.224 187.631 53.96 187.631 50.216C187.631 46.472 188.375 43.208 189.863 40.424C191.399 37.592 193.511 35.384 196.199 33.8C198.935 32.216 202.079 31.424 205.631 31.424C209.183 31.424 212.231 32.216 214.775 33.8C217.319 35.336 219.287 37.376 220.679 39.92C222.119 42.464 222.839 45.296 222.839 48.416C222.839 48.896 222.839 49.424 222.839 50C222.839 50.576 222.791 51.176 222.695 51.8H192.887V46.76H215.639C215.495 43.688 214.487 41.312 212.615 39.632C210.743 37.904 208.391 37.04 205.559 37.04C203.639 37.04 201.839 37.472 200.159 38.336C198.527 39.2 197.207 40.496 196.199 42.224C195.191 43.952 194.687 46.136 194.687 48.776V50.792C194.687 53.432 195.191 55.664 196.199 57.488C197.207 59.264 198.527 60.608 200.159 61.52C201.839 62.432 203.615 62.888 205.487 62.888C207.791 62.888 209.687 62.384 211.175 61.376C212.711 60.32 213.839 58.904 214.559 57.128H221.831C221.159 59.384 220.079 61.4 218.591 63.176C217.103 64.904 215.255 66.296 213.047 67.352C210.887 68.36 208.391 68.864 205.559 68.864ZM223.419 68L236.019 50.144L223.419 32.288H231.195L240.699 46.472H240.987L250.563 32.288H258.267L245.667 50.144L258.267 68H250.563L240.987 53.744H240.699L231.195 68H223.419Z" fill="white"/>
<path d="M284.75 68.864C279.758 68.864 275.438 67.784 271.79 65.624C268.19 63.416 265.406 60.368 263.438 56.48C261.518 52.544 260.558 47.984 260.558 42.8C260.558 37.664 261.542 33.128 263.51 29.192C265.478 25.256 268.262 22.208 271.862 20.048C275.462 17.84 279.758 16.736 284.75 16.736C290.654 16.736 295.454 18.152 299.15 20.984C302.846 23.816 305.198 27.8 306.206 32.936H298.214C297.494 29.96 296.006 27.608 293.75 25.88C291.542 24.104 288.542 23.216 284.75 23.216C281.294 23.216 278.294 24.008 275.75 25.592C273.254 27.176 271.31 29.432 269.918 32.36C268.574 35.288 267.902 38.768 267.902 42.8C267.902 46.88 268.574 50.384 269.918 53.312C271.31 56.24 273.254 58.496 275.75 60.08C278.294 61.616 281.294 62.384 284.75 62.384C288.542 62.384 291.59 61.544 293.894 59.864C296.198 58.136 297.71 55.832 298.43 52.952H306.206C305.198 57.944 302.846 61.856 299.15 64.688C295.454 67.472 290.654 68.864 284.75 68.864ZM311.013 68V32.288H317.277L317.925 40.064H318.213C319.365 37.52 320.517 35.648 321.669 34.448C322.869 33.2 324.237 32.384 325.773 32C327.357 31.616 329.229 31.424 331.389 31.424V38.984H329.517C327.645 38.984 325.989 39.224 324.549 39.704C323.157 40.136 321.981 40.808 321.021 41.72C320.109 42.632 319.413 43.808 318.933 45.248C318.453 46.64 318.213 48.296 318.213 50.216V68H311.013ZM339.726 82.4L348.078 63.968H345.918L331.518 32.288H339.294L350.742 58.28H351.03L362.262 32.288H369.822L347.286 82.4H339.726ZM372.821 82.4V32.288H378.869L379.373 38.984H379.661C380.717 37.304 381.917 35.912 383.261 34.808C384.653 33.704 386.213 32.864 387.941 32.288C389.669 31.712 391.517 31.424 393.485 31.424C396.893 31.424 399.845 32.24 402.341 33.872C404.885 35.504 406.829 37.736 408.173 40.568C409.565 43.4 410.261 46.592 410.261 50.144C410.261 53.696 409.565 56.888 408.173 59.72C406.829 62.552 404.861 64.784 402.269 66.416C399.677 68.048 396.533 68.864 392.837 68.864C389.669 68.864 387.029 68.216 384.917 66.92C382.805 65.624 381.173 64.16 380.021 62.528V82.4H372.821ZM391.541 62.744C393.893 62.744 395.909 62.216 397.589 61.16C399.317 60.104 400.637 58.64 401.549 56.768C402.509 54.896 402.989 52.688 402.989 50.144C402.989 47.648 402.509 45.464 401.549 43.592C400.637 41.672 399.317 40.184 397.589 39.128C395.909 38.072 393.893 37.544 391.541 37.544C389.237 37.544 387.221 38.072 385.493 39.128C383.765 40.184 382.421 41.672 381.461 43.592C380.549 45.464 380.093 47.648 380.093 50.144C380.093 52.688 380.549 54.896 381.461 56.768C382.421 58.64 383.765 60.104 385.493 61.16C387.221 62.216 389.237 62.744 391.541 62.744ZM427.756 68C425.5 68 423.508 67.64 421.78 66.92C420.1 66.2 418.804 65 417.892 63.32C417.028 61.64 416.596 59.36 416.596 56.48V37.688H410.404V32.288H416.596L417.388 23.36H423.796V32.288H433.948V37.688H423.796V56.552C423.796 58.808 424.204 60.32 425.02 61.088C425.884 61.856 427.372 62.24 429.484 62.24H433.516V68H427.756ZM452.445 68.864C449.085 68.864 446.037 68.096 443.301 66.56C440.613 64.976 438.477 62.792 436.893 60.008C435.309 57.176 434.517 53.888 434.517 50.144C434.517 46.4 435.309 43.136 436.893 40.352C438.525 37.52 440.685 35.336 443.373 33.8C446.109 32.216 449.181 31.424 452.589 31.424C455.997 31.424 459.045 32.216 461.733 33.8C464.469 35.336 466.605 37.52 468.141 40.352C469.725 43.136 470.517 46.4 470.517 50.144C470.517 53.888 469.725 57.176 468.141 60.008C466.557 62.792 464.397 64.976 461.661 66.56C458.925 68.096 455.853 68.864 452.445 68.864ZM452.445 63.104C454.365 63.104 456.117 62.624 457.701 61.664C459.333 60.704 460.653 59.288 461.661 57.416C462.669 55.496 463.173 53.072 463.173 50.144C463.173 47.216 462.669 44.792 461.661 42.872C460.701 40.952 459.405 39.536 457.773 38.624C456.189 37.664 454.461 37.184 452.589 37.184C450.717 37.184 448.965 37.664 447.333 38.624C445.701 39.536 444.381 40.952 443.373 42.872C442.365 44.792 441.861 47.216 441.861 50.144C441.861 53.072 442.365 55.496 443.373 57.416C444.381 59.288 445.677 60.704 447.261 61.664C448.893 62.624 450.621 63.104 452.445 63.104Z" fill="#FF971D"/>
</svg>
