<svg width="64" height="65" viewBox="0 0 64 65" fill="none" xmlns="http://www.w3.org/2000/svg">
<rect y="0.734863" width="64" height="64" rx="32" fill="white" fill-opacity="0.1"/>
<path d="M38.6666 31.1409C38.6666 30.6799 38.6666 30.4495 38.736 30.2442C38.9376 29.6475 39.469 29.4159 40.0014 29.1734C40.6 28.9008 40.8992 28.7645 41.1957 28.7405C41.5324 28.7132 41.8696 28.7858 42.1573 28.9473C42.5388 29.1613 42.8048 29.5681 43.0772 29.8989C44.335 31.4266 44.9638 32.1906 45.194 33.033C45.3797 33.7127 45.3797 34.4237 45.194 35.1034C44.8584 36.3321 43.798 37.3621 43.013 38.3154C42.6116 38.803 42.4108 39.0469 42.1573 39.1891C41.8696 39.3506 41.5324 39.4231 41.1957 39.3959C40.8992 39.3719 40.6 39.2357 40.0014 38.963C39.469 38.7205 38.9376 38.489 38.736 37.8922C38.6666 37.6869 38.6666 37.4565 38.6666 36.9955V31.1409Z" stroke="#FF971D" stroke-width="2"/>
<path d="M25.3333 31.141C25.3333 30.5607 25.317 30.0391 24.8478 29.6311C24.6772 29.4827 24.451 29.3797 23.9985 29.1736C23.4 28.901 23.1007 28.7647 22.8042 28.7407C21.9145 28.6687 21.4359 29.2759 20.9228 29.8991C19.665 31.4269 19.036 32.1907 18.8059 33.0331C18.6202 33.713 18.6202 34.4239 18.8059 35.1037C19.1416 36.3323 20.202 37.3622 20.9869 38.3157C21.4817 38.9166 21.9543 39.4649 22.8042 39.3962C23.1007 39.3722 23.4 39.2358 23.9985 38.9633C24.451 38.7571 24.6772 38.6541 24.8478 38.5057C25.317 38.0977 25.3333 37.5762 25.3333 36.9958V31.141Z" stroke="#FF971D" stroke-width="2"/>
<path d="M22.6666 28.7349C22.6666 24.3166 26.8453 20.7349 32 20.7349C37.1546 20.7349 41.3333 24.3166 41.3333 28.7349" stroke="#FF971D" stroke-width="2" stroke-linecap="square" stroke-linejoin="round"/>
<path d="M41.3334 39.4014V40.468C41.3334 42.8244 38.9455 44.7347 36 44.7347H33.3334" stroke="#FF971D" stroke-width="2" stroke-linecap="round" stroke-linejoin="round"/>
</svg>
