<svg width="64" height="65" viewBox="0 0 64 65" fill="none" xmlns="http://www.w3.org/2000/svg">
<rect y="0.734863" width="64" height="64" rx="32" fill="white" fill-opacity="0.1"/>
<path d="M24.7767 26.3855C28.7861 27.0924 31.1757 28.5709 32 29.4198C32.8243 28.5709 35.2139 27.0924 39.2233 26.3855C41.2545 26.0274 42.2701 25.8484 43.1351 26.5346C44 27.2209 44 28.3353 44 30.5641V38.5738C44 40.6118 44 41.6308 43.4449 42.2669C42.8897 42.903 41.6676 43.1185 39.2233 43.5494C37.0444 43.9336 35.3439 44.5456 34.1129 45.1606C32.902 45.7658 32.2964 46.0684 32 46.0684C31.7036 46.0684 31.098 45.7658 29.8871 45.1606C28.6561 44.5456 26.9556 43.9336 24.7767 43.5494C22.3324 43.1185 21.1102 42.903 20.5551 42.2669C20 41.6308 20 40.6118 20 38.5738V30.5641C20 28.3353 20 27.2209 20.8649 26.5346C21.7299 25.8484 22.7455 26.0274 24.7767 26.3855Z" stroke="#FF971D" stroke-width="2" stroke-linecap="round" stroke-linejoin="round"/>
<path d="M32 28.7349V46.0682" stroke="#FF971D" stroke-width="2" stroke-linejoin="round"/>
<path d="M27.3334 20.8128C28.6819 19.9187 30.2786 19.4014 31.9902 19.4014C33.71 19.4014 35.314 19.9237 36.6667 20.8259M34.163 24.068C33.5228 23.6817 32.781 23.4608 31.9902 23.4608C31.2078 23.4608 30.4734 23.677 29.8379 24.0557" stroke="#FF971D" stroke-width="2" stroke-linecap="round"/>
</svg>
