<svg width="64" height="65" viewBox="0 0 64 65" fill="none" xmlns="http://www.w3.org/2000/svg">
<rect y="0.734863" width="64" height="64" rx="32" fill="white" fill-opacity="0.1"/>
<path d="M43.6985 40.7349C44.6976 40.7349 45.4923 40.1062 46.2057 39.227C47.6664 37.4274 45.2683 35.9893 44.3536 35.285C43.4239 34.569 42.3857 34.1634 41.3332 34.0682M39.9999 31.4015C41.8408 31.4015 43.3332 29.9091 43.3332 28.0682C43.3332 26.2272 41.8408 24.7349 39.9999 24.7349" stroke="#FF971D" stroke-width="2" stroke-linecap="round"/>
<path d="M20.3011 40.7349C19.302 40.7349 18.5074 40.1062 17.7939 39.227C16.3333 37.4274 18.7314 35.9893 19.646 35.285C20.5758 34.569 21.6139 34.1634 22.6665 34.0682M23.3331 31.4015C21.4922 31.4015 19.9998 29.9091 19.9998 28.0682C19.9998 26.2272 21.4922 24.7349 23.3331 24.7349" stroke="#FF971D" stroke-width="2" stroke-linecap="round"/>
<path d="M26.7782 36.883C25.4158 37.7254 21.8438 39.4455 24.0194 41.5979C25.0822 42.6494 26.2658 43.4014 27.754 43.4014H36.2457C37.7338 43.4014 38.9174 42.6494 39.9802 41.5979C42.1558 39.4455 38.5838 37.7254 37.2214 36.883C34.0266 34.9075 29.9729 34.9075 26.7782 36.883Z" stroke="#FF971D" stroke-width="2" stroke-linecap="round" stroke-linejoin="round"/>
<path d="M36.6665 26.735C36.6665 29.3124 34.5772 31.4017 31.9998 31.4017C29.4225 31.4017 27.3331 29.3124 27.3331 26.735C27.3331 24.1577 29.4225 22.0684 31.9998 22.0684C34.5772 22.0684 36.6665 24.1577 36.6665 26.735Z" stroke="#FF971D" stroke-width="2"/>
</svg>
